<?xml version="1.0" encoding="iso-8859-1"?>
<!-- Generator: Adobe Illustrator 19.0.0, SVG Export Plug-In . SVG Version: 6.00 Build 0)  -->
<svg version="1.1" id="Capa_1" xmlns="http://www.w3.org/2000/svg" xmlns:xlink="http://www.w3.org/1999/xlink" x="0px" y="0px"
	 viewBox="0 0 512 512" fill="#8e8e93" style="enable-background:new 0 0 512 512;" xml:space="preserve">
<g>
	<g>
		<path d="M380.759,20.021c-51.832,0-94.86,38.398-102.146,88.241H153.05L51.096,0L29.26,20.564l82.587,87.698H28.004
			l178.121,199.612v174.131h-84.986V512h199.968v-29.995h-84.986V307.874l87.827-98.423c16.766,11.062,36.468,17.047,56.81,17.047
			c56.926,0,103.238-46.313,103.238-103.238S437.683,20.021,380.759,20.021z M221.124,279.629l-72.62-81.382h145.24L221.124,279.629
			z M320.509,168.252H121.737l-26.766-29.995h252.304L320.509,168.252z M380.759,196.503c-12.936,0-25.501-3.419-36.534-9.775
			l70.018-78.465H309.065c6.94-33.217,36.446-58.246,71.694-58.246c40.387,0,73.243,32.857,73.243,73.243
			S421.144,196.503,380.759,196.503z"/>
	</g>
</g>
<g>
</g>
<g>
</g>
<g>
</g>
<g>
</g>
<g>
</g>
<g>
</g>
<g>
</g>
<g>
</g>
<g>
</g>
<g>
</g>
<g>
</g>
<g>
</g>
<g>
</g>
<g>
</g>
<g>
</g>
</svg>
