<svg xmlns="http://www.w3.org/2000/svg" width="auto" height="auto" viewBox="0 0 27 27" ><defs><style>.a{fill:none;}.b{fill:#8e8e93;stroke:#8e8e93;stroke-width:0.5px;}</style></defs><g transform="translate(-136 -308)"><rect class="a" width="30" height="30" transform="translate(136 308)"/><g transform="translate(1.148 0.208)"><g transform="translate(138.418 314.155)"><path class="b" d="M202.775,353.582a1.49,1.49,0,1,0,1.49-1.49A1.487,1.487,0,0,0,202.775,353.582Z" transform="translate(-193.256 -338.127)"/><path class="b" d="M93.69,159.028a.839.839,0,0,0,.585-.253.8.8,0,0,0-.053-1.131,10.424,10.424,0,0,0-14.059-.053.8.8,0,1,0,1.077,1.184,8.83,8.83,0,0,1,11.9.04A.785.785,0,0,0,93.69,159.028Z" transform="translate(-76.151 -150.184)"/><path class="b" d="M150.927,258.738a.84.84,0,0,0,.585-.253.8.8,0,0,0-.053-1.131,6.009,6.009,0,0,0-8.113-.04.8.8,0,1,0,1.077,1.184,4.414,4.414,0,0,1,5.959.027A.809.809,0,0,0,150.927,258.738Z" transform="translate(-136.368 -246.316)"/><path class="b" d="M21.277,60.191a.839.839,0,0,0,.585-.253.8.8,0,0,0-.053-1.131,15.984,15.984,0,0,0-21.547-.08A.8.8,0,1,0,1.34,59.912a14.389,14.389,0,0,1,19.392.067A.88.88,0,0,0,21.277,60.191Z" transform="translate(0 -54.592)"/></g></g></g></svg>