<svg xmlns="http://www.w3.org/2000/svg" width="auto" height="auto" viewBox="0 0 27 27"><defs><style>.a{fill:none;}.b{fill:#8e8e93;stroke:#8e8e93;stroke-width:0.4px;}</style></defs><g transform="translate(-212 -311)"><rect class="a" width="30" height="30" transform="translate(212 311)"/><path class="b" d="M176.639,2.526A2.525,2.525,0,0,0,174.113,0h-.171a2.525,2.525,0,0,0-2.526,2.526V8.3a2.525,2.525,0,0,0,2.526,2.526h.171A2.525,2.525,0,0,0,176.639,8.3ZM175.5,8.3a1.382,1.382,0,0,1-1.387,1.387h-.171A1.382,1.382,0,0,1,172.556,8.3V2.526a1.382,1.382,0,0,1,1.387-1.387h.171A1.382,1.382,0,0,1,175.5,2.526Z" transform="translate(52.623 317)"/><path class="b" d="M81.32,200.6a.571.571,0,0,0-.57.57,6.031,6.031,0,0,0,4.938,6.107v2.27H83.124a.57.57,0,1,0,0,1.14h6.648a.57.57,0,1,0,0-1.14H86.828v-2.222a5.987,5.987,0,0,0,5.318-6.145.57.57,0,1,0-1.14,0,4.581,4.581,0,1,1-9.117-.01A.571.571,0,0,0,81.32,200.6Z" transform="translate(140.25 123.124)"/></g></svg>