<svg xmlns="http://www.w3.org/2000/svg" width="auto" height="auto" viewBox="0 0 27 27"><defs><style>.a{fill:#8e8e93;stroke:#8e8e93;stroke-width:0.3px;}.b{fill:none;}</style></defs><g transform="translate(-195 -314)"><path class="a" d="M39.882,31.352l-2.3-1.321,2-.879a.555.555,0,0,0,.285-.729.565.565,0,0,0-.729-.284l-2.751,1.208-3.207-1.839,3.192-1.842,2.782,1.211a.552.552,0,0,0,.44-1.014l-2.032-.885,2.315-1.336a.553.553,0,0,0,.2-.755.569.569,0,0,0-.755-.2l-2.3,1.327.246-2.172a.552.552,0,1,0-1.1-.124L35.859,24.7l-3.185,1.853v-3.68l2.411-1.8a.527.527,0,0,0,.21-.349.575.575,0,0,0-.107-.424.539.539,0,0,0-.754-.116L32.674,21.5V18.829a.609.609,0,0,0-1.213,0v2.651l-1.733-1.3a.548.548,0,0,0-.759.116.582.582,0,0,0-.11.43.515.515,0,0,0,.206.341l2.4,1.786v3.7L28.323,24.74l-.334-2.986a.549.549,0,0,0-.54-.489.5.5,0,0,0-.066,0,.556.556,0,0,0-.483.613l.255,2.173L24.8,22.705a.552.552,0,0,0-.548.959l2.368,1.358-2.028.891a.551.551,0,0,0-.284.727.56.56,0,0,0,.728.285l2.777-1.219,3.149,1.805-3.155,1.822-2.754-1.2a.563.563,0,0,0-.727.286.554.554,0,0,0,.286.728l2,.873-2.35,1.357a.553.553,0,0,0,.278,1.031.545.545,0,0,0,.275-.074l2.365-1.366-.251,2.2a.55.55,0,0,0,.118.407.544.544,0,0,0,.365.2.5.5,0,0,0,.068,0,.552.552,0,0,0,.548-.492l.316-3.014,3.11-1.809v3.671L29.325,33.93a.554.554,0,0,0-.059.775.559.559,0,0,0,.433.2.511.511,0,0,0,.332-.126l1.43-1.2v2.631a.609.609,0,0,0,1.213,0V33.563l1.452,1.22a.532.532,0,0,0,.754-.076.587.587,0,0,0,.138-.392.514.514,0,0,0-.186-.386l-2.159-1.8V28.463L35.849,30.3l.337,3.014a.549.549,0,0,0,.542.488.377.377,0,0,0,.06,0,.544.544,0,0,0,.368-.2.55.55,0,0,0,.117-.409l-.257-2.2,2.317,1.328a.552.552,0,0,0,.549-.958Z" transform="translate(177.729 301.028)"/><rect class="b" width="30" height="30" transform="translate(195 314)"/></g></svg>