<svg xmlns="http://www.w3.org/2000/svg" width="auto" height="auto" viewBox="0 0 27 27"><defs><style>.a{fill:none;}.b{fill:#8e8e93;stroke:#8e8e93;stroke-width:0.5px;}</style></defs><g transform="translate(-116 -309)"><rect class="a" width="30" height="30" transform="translate(116 309)"/><path class="b" d="M54,5.6v-.35a3.959,3.959,0,0,0-2.111-3.266A9.121,9.121,0,0,0,47.351.706V0h-.7V.706a9.121,9.121,0,0,0-4.54,1.279A3.959,3.959,0,0,0,40,5.251V5.6h6.651V9.1H40v2.45h1.05V16.8h.7V13.8L44,11.551h2.655V16.8h.7V11.551h2.655L52.251,13.8V16.8h.7V11.551H54V9.1H47.351V5.6ZM41.75,12.807V11.551h1.255Zm10.5,0L51,11.551h1.255Zm1.05-1.955H40.7V9.8H53.3ZM47,1.4c.449,0,.908.38,1.258,1.044a5.926,5.926,0,0,1,.6,2.457H45.142a5.926,5.926,0,0,1,.6-2.457C46.093,1.781,46.551,1.4,47,1.4Zm6.275,3.5H49.561a5.868,5.868,0,0,0-1.082-3.393,7.864,7.864,0,0,1,3.038,1.069A3.493,3.493,0,0,1,53.275,4.9ZM42.485,2.576a7.865,7.865,0,0,1,3.038-1.069A5.868,5.868,0,0,0,44.441,4.9H40.726A3.493,3.493,0,0,1,42.485,2.576Z" transform="translate(84 316)"/></g></svg>