<svg xmlns="http://www.w3.org/2000/svg" width="auto" height="auto" viewBox="0 0 27 27" ><defs><style>.a,.b,.c{fill:none;}.b,.c{stroke:#8e8e93;stroke-linecap:round;stroke-width:1.5px;}.b{stroke-linejoin:round;}</style></defs><g transform="translate(-116 -309)"><rect class="a" width="30" height="30" transform="translate(116 309)"/><g transform="translate(2.262 -1.474)"><path class="b" d="M989.226,330.525h-1.312l6.695-7.038,3-6.683h5.162l-3.264,7.669-5.264,6.051Z" transform="translate(-868.176 3.337)"/><path class="c" d="M995.451,320.232v7.281" transform="translate(-863.543 6.328)"/><path class="b" d="M996.962,317.659v-2.11h2.994v16.306" transform="translate(-862.615 1.925)"/><path class="b" d="M996.558,317.665v-2.1h-2.909v3.062" transform="translate(-864.651 1.933)"/><path class="c" d="M995.451,323.843h5.323" transform="translate(-863.543 7.662)"/><path class="c" d="M995.451,322.043h5.422" transform="translate(-863.543 6.557)"/><path class="c" d="M1000.4,320.265h-4.961" transform="translate(-863.073 5.463)"/><path class="c" d="M996.319,318.609h3.78" transform="translate(-863.01 4.446)"/><path class="c" d="M999.937,316.8h-2.944" transform="translate(-862.596 3.337)"/></g></g></svg>