<?xml version="1.0" encoding="iso-8859-1"?>
<!-- Generator: Adobe Illustrator 19.0.0, SVG Export Plug-In . SVG Version: 6.00 Build 0)  -->
<svg version="1.1" id="Layer_1" xmlns="http://www.w3.org/2000/svg" xmlns:xlink="http://www.w3.org/1999/xlink" x="0px" y="0px"
	 viewBox="0 0 512 512" style="enable-background:new 0 0 512 512;" fill="#767676" xml:space="preserve">
<g>
	<g>
		<g>
			<path d="M450.417,344.115h-45.491V328.35c40.796-20.356,69.708-61.105,73.281-108.814c12.106-4.847,20.377-16.66,20.377-30.132
				c0-13.472-8.27-25.284-20.377-30.132c-5.132-68.518-62.52-122.698-132.327-122.698S218.684,90.754,213.553,159.273
				c-12.106,4.848-20.375,16.661-20.375,30.132c0,13.471,8.269,25.283,20.375,30.131c3.572,47.71,32.486,88.46,73.285,108.816
				v15.764h-45.492c-2.603,0-5.225,0.185-7.833,0.519c-16.526-14.336-36.643-24.628-58.802-29.34
				c-2.378-12.994-13.776-22.875-27.445-22.875c-13.668,0-25.065,9.881-27.442,22.873c-57.028,12.13-100.527,61.258-104.084,120.972
				H7.918c-4.374,0-7.918,3.545-7.918,7.918v23.326c0,4.373,3.544,7.918,7.918,7.918h496.165c4.374,0,7.917-3.545,7.917-7.918
				v-61.813C512,371.741,484.374,344.115,450.417,344.115z M478.584,178.406c2.602,2.954,4.166,6.815,4.166,10.997
				s-1.563,8.043-4.166,10.996V178.406z M213.177,200.398c-2.602-2.954-4.165-6.814-4.165-10.995s1.562-8.042,4.165-10.996V200.398z
				 M345.881,52.407c57.839,0,105.991,42.238,115.252,97.488c-10.04,2.39-20.339,3.619-30.709,3.619
				c-47.033,0-90.925-25.311-114.545-66.055c-1.467-2.529-4.195-4.05-7.132-3.941c-2.924,0.105-5.551,1.812-6.833,4.44
				c-14.235,29.172-40.307,51.188-71.049,60.535C240.697,93.931,288.531,52.407,345.881,52.407z M229.012,209.53v-40.255
				c0-1.293,0.029-2.581,0.071-3.865c33.269-8.297,62.311-29.537,80.447-58.58c27.611,38.867,72.783,62.517,120.893,62.517
				c10.883,0,21.697-1.201,32.27-3.556c0.034,1.157,0.056,2.317,0.056,3.483v40.255c0,64.442-52.427,116.869-116.868,116.869
				C281.438,326.399,229.012,273.972,229.012,209.53z M375.885,359.95h6.768l-6.637,10.522v-8.625
				C376.017,361.194,375.967,360.564,375.885,359.95z M302.671,344.115L302.671,344.115v-9.109
				c13.552,4.68,28.087,7.228,43.21,7.228s29.659-2.549,43.212-7.229v9.11H302.671z M345.881,389.403l11.567,10.504l-11.568,18.338
				l-11.567-18.338L345.881,389.403z M331.581,380.999v-7.343l4.044,3.672L331.581,380.999z M340.042,359.95h11.678l-5.838,5.302
				L340.042,359.95z M356.137,377.328l4.044-3.672l-0.001,7.343L356.137,377.328z M315.745,370.47l-6.636-10.52h6.766
				c-0.081,0.614-0.131,1.245-0.131,1.897L315.745,370.47z M147.265,308.255c3.788,0,7.169,1.757,9.384,4.494
				c-3.101-0.22-6.228-0.338-9.384-0.338c-3.154,0-6.282,0.118-9.383,0.338C140.097,310.011,143.478,308.255,147.265,308.255z
				 M147.265,328.245c61.267,0,111.58,47.771,115.663,108.02H31.605C35.688,376.016,85.999,328.245,147.265,328.245z
				 M278.695,459.592H15.835v-7.491h262.86V459.592z M496.166,459.592h-0.001H294.53v-15.409c0-4.373-3.544-7.918-7.918-7.918
				h-7.818c-1.723-28.922-12.812-55.36-30.274-76.316h41.867l48.797,77.359c1.451,2.299,3.978,3.694,6.697,3.694
				c2.717,0,5.247-1.395,6.697-3.694l48.799-77.359h49.041c25.225,0,45.747,20.522,45.747,45.747V459.592z"/>
			<circle cx="409.919" cy="180.614" r="7.982"/>
			<path d="M400.084,253.184v-7.964c0-15.811-12.863-28.674-28.674-28.674h-2.091c0.186-1.197,0.283-2.422,0.283-3.671v-10.632
				c0-13.158-10.706-23.862-23.862-23.862c-13.159,0-23.863,10.704-23.863,23.862v10.632c0,1.248,0.097,2.473,0.283,3.671h-2.092
				c-15.812,0-28.675,12.863-28.675,28.674v7.964c0,4.373,3.544,7.918,7.918,7.918h92.859
				C396.54,261.102,400.084,257.557,400.084,253.184z M337.71,202.244c0-4.426,3.602-8.027,8.028-8.027
				c4.426,0,8.027,3.601,8.027,8.027v10.632c0,4.427-3.601,8.028-8.027,8.028c-4.426,0-8.028-3.602-8.028-8.028V202.244z
				 M307.225,245.266v-0.047c0-7.079,5.76-12.839,12.84-12.839h11.949c3.885,2.742,8.617,4.359,13.724,4.359
				c5.105,0,9.838-1.617,13.723-4.359h11.948c7.079,0,12.839,5.76,12.839,12.839v0.047H307.225z"/>
			<rect x="397.009" y="423.839" width="55.687" height="15.835"/>
			<circle cx="281.844" cy="180.615" r="7.982"/>
		</g>
	</g>
</g>
<g>
</g>
<g>
</g>
<g>
</g>
<g>
</g>
<g>
</g>
<g>
</g>
<g>
</g>
<g>
</g>
<g>
</g>
<g>
</g>
<g>
</g>
<g>
</g>
<g>
</g>
<g>
</g>
<g>
</g>
</svg>
