<svg height="496pt" viewBox="0 0 496 496" width="496pt" xmlns="http://www.w3.org/2000/svg"><path d="m264 280v60.71875c-24 12.320312-51.199219 19.28125-80 19.28125-8.160156 0-16.160156-.558594-24-1.601562v-54.476563c0-9.683594-5.761719-18.402344-14.640625-22.160156l-26.71875-11.523438c-8.878906-3.757812-14.640625-12.476562-14.640625-22.160156 0-6.636719-2.71875-12.636719-7.039062-17.039063-4.402344-4.320312-10.402344-7.039062-17.039063-7.039062h-2.242187c-3.757813 0-7.441407.878906-10.800782 2.558594l-42.878906 21.441406-3.28125 1.679688h-.078125c-6.242187-15.601563-10.402344-32.320313-11.921875-49.839844l44.402344-11.121094c11.117187-2.796875 18.878906-12.71875 18.878906-24.160156v-.160156c0-11.839844 8.398438-22.078126 20-24.398438 5.761719-1.121094 10.800781-4.320312 14.320312-8.640625 3.601563-4.320313 5.679688-9.839844 5.679688-15.757813v-24.082031c0-2.320312-.320312-4.640625-.960938-6.878906l-15.039062-52.640625-.160156-.320312c25.921875-15.121094 56-23.679688 88.160156-23.679688 28.878906 0 56 6.960938 80 19.199219v32.5625c0 11.679687-8.398438 21.679687-19.921875 23.597656l-8.15625 1.28125c-11.523437 1.917969-19.921875 11.917969-19.921875 23.597656 0 5.441407-2.238281 10.402344-5.761719 14-3.597656 3.523438-8.558593 5.761719-14 5.761719-7.519531 0-14.316406-4.238281-17.679687-10.960938l-6.480469-12.878906c-2.476563-4.960937-7.597656-8.160156-13.277344-8.160156-8.160156 0-14.800781 6.640625-14.800781 14.800781v19.597657c0 28.800781 13.28125 55.921874 36 73.601562 11.359375 8.800781 20.320312 20 26.558594 32.640625 6.082031 12.558594 9.441406 26.558594 9.441406 40.960937v2.398438c0 13.28125 10.71875 24 24 24 6.640625 0 12.640625-2.71875 16.960938-7.039062 4.320312-4.320313 7.039062-10.320313 7.039062-16.960938zm0 0" fill="#69d6f4"/><g fill="#b4dd7f"><path d="m160 303.921875v54.398437c-63.519531-8.640624-116.160156-51.121093-139.28125-108.640624l3.28125-1.679688 42.878906-21.441406c3.359375-1.679688 7.042969-2.558594 10.800782-2.558594h2.242187c6.636719 0 12.636719 2.71875 17.039063 7.039062 4.320312 4.402344 7.039062 10.402344 7.039062 17.039063 0 9.683594 5.761719 18.402344 14.640625 22.160156l26.71875 11.523438c8.878906 3.757812 14.640625 12.476562 14.640625 22.160156zm0 0"/><path d="m340.71875 104h-44.71875c-17.679688 0-32 14.320312-32 32v144c0 6.640625-2.71875 12.640625-7.039062 16.960938-4.320313 4.320312-10.320313 7.039062-16.960938 7.039062-13.28125 0-24-10.71875-24-24v-2.398438c0-14.402343-3.359375-28.402343-9.441406-40.960937-6.238282-12.640625-15.199219-23.839844-26.558594-32.640625-22.71875-17.679688-36-44.800781-36-73.601562v-19.597657c0-8.160156 6.640625-14.800781 14.800781-14.800781 5.679688 0 10.800781 3.199219 13.277344 8.160156l6.480469 12.878906c3.363281 6.722657 10.160156 10.960938 17.679687 10.960938 5.441407 0 10.402344-2.238281 14-5.761719 3.523438-3.597656 5.761719-8.558593 5.761719-14 0-11.679687 8.398438-21.679687 19.921875-23.597656l8.15625-1.28125c11.523437-1.917969 19.921875-11.917969 19.921875-23.597656v-32.5625c32.960938 16.878906 59.839844 43.839843 76.71875 76.800781zm0 0"/><path d="m112 91.519531v24.082031c0 5.917969-2.078125 11.4375-5.679688 15.757813-3.519531 4.320313-8.558593 7.519531-14.320312 8.640625-11.601562 2.320312-20 12.558594-20 24.398438v.160156c0 11.441406-7.761719 21.363281-18.878906 24.160156l-44.402344 11.121094c-.480469-5.199219-.71875-10.480469-.71875-15.839844 0-65.121094 35.359375-121.921875 87.839844-152.320312l.160156.320312 15.039062 52.640625c.640626 2.238281.960938 4.558594.960938 6.878906zm0 0"/></g><path d="m488 424v32c0 17.679688-14.320312 32-32 32h-160c-17.679688 0-32-14.320312-32-32v-32zm0 0" fill="#838f9b"/><path d="m488 136v16h-224v-16c0-17.679688 14.320312-32 32-32h160c17.679688 0 32 14.320312 32 32zm0 0" fill="#838f9b"/><path d="m488 152v272h-224v-272zm0 0" fill="#69d6f4"/><path d="m392 328c0 8.835938-7.164062 16-16 16s-16-7.164062-16-16 7.164062-16 16-16 16 7.164062 16 16zm0 0" fill="#fcd770"/><path d="m456 96h-110.542969c-32.34375-59.3125-93.703125-96-161.457031-96-101.464844 0-184 82.535156-184 184s82.535156 184 184 184c25.078125 0 49.230469-4.976562 72-14.710938v102.710938c0 22.054688 17.945312 40 40 40h160c22.054688 0 40-17.945312 40-40v-320c0-22.054688-17.945312-40-40-40zm24 40v8h-208v-8c0-13.230469 10.769531-24 24-24h160c13.230469 0 24 10.769531 24 24zm-208 104.511719v-80.511719h208v256h-208zm55.03125-144.511719h-31.03125c-22.054688 0-40 17.945312-40 40v144c0 8.824219-7.175781 16-16 16s-16-7.175781-16-16v-2.390625c0-31.472656-14.246094-60.601563-39.089844-79.921875-20.917968-16.273438-32.910156-40.800781-32.910156-67.296875v-19.550781c0-3.769532 3.070312-6.839844 6.832031-6.839844 2.601563 0 4.945313 1.449219 6.113281 3.769531l6.429688 12.878907c4.746094 9.472656 14.265625 15.351562 24.847656 15.351562 15.3125 0 27.777344-12.464844 27.777344-27.777344 0-7.789062 5.574219-14.382812 13.246094-15.664062l8.128906-1.34375c15.433594-2.574219 26.625-15.800782 26.625-31.4375v-18.984375c22.097656 13.589843 41 32.367187 55.03125 55.207031zm-235.886719-51.878906 12.207031 42.734375c.433594 1.503906.648438 3.054687.648438 4.632812v24.121094c0 8.015625-5.710938 14.976563-13.566406 16.550781-15.3125 3.0625-26.433594 16.625-26.433594 32.414063 0 7.761719-5.257812 14.496093-12.785156 16.378906l-34.925782 8.734375c-.066406-1.902344-.289062-3.765625-.289062-5.6875 0-58.3125 29.894531-109.742188 75.144531-139.878906zm-59.960937 209.277344 39.304687-19.695313c2.230469-1.117187 4.71875-1.703125 7.199219-1.703125h2.207031c8.882813 0 16.105469 7.222656 16.105469 16.105469 0 12.855469 7.640625 24.445312 19.457031 29.503906l26.789063 11.488281c5.929687 2.535156 9.761718 8.351563 9.761718 14.804688v44.960937c-53.917968-10.457031-98.617187-46.765625-120.824218-95.464843zm152.816406 98.601562c-5.398438 0-10.726562-.3125-16-.808594v-47.289062c0-12.855469-7.640625-24.445313-19.457031-29.503906l-26.789063-11.488282c-5.921875-2.542968-9.753906-8.359375-9.753906-14.804687 0-17.707031-14.398438-32.105469-32.105469-32.105469h-2.207031c-4.953125 0-9.910156 1.167969-14.351562 3.390625l-38.105469 19.058594c-3.589844-10.449219-6.167969-21.335938-7.636719-32.59375l37.503906-9.375c14.664063-3.664063 24.902344-16.785157 24.902344-32.082031 0-8.015626 5.710938-14.972657 13.566406-16.550782 15.3125-3.070312 26.433594-16.632812 26.433594-32.246094v-24.121093c0-3.074219-.433594-6.113281-1.265625-9.03125l-13.375-46.808594c23.488281-12.496094 50.234375-19.640625 78.640625-19.640625 25.480469 0 49.929688 5.761719 72 16.214844v27.5625c0 7.789062-5.574219 14.382812-13.246094 15.664062l-8.128906 1.34375c-15.433594 2.574219-26.625 15.800782-26.625 31.4375 0 6.496094-5.28125 11.777344-11.777344 11.777344-4.496094 0-8.527344-2.496094-10.535156-6.503906l-6.429688-12.878906c-3.898437-7.785157-11.730468-12.617188-20.425781-12.617188-12.59375 0-22.832031 10.238281-22.832031 22.832031v19.550781c0 31.472657 14.246094 60.601563 39.089844 79.921876 20.917968 16.269531 32.910156 40.800781 32.910156 67.296874v2.398438c0 17.648438 14.351562 32 32 32 5.855469 0 11.273438-1.695312 16-4.449219v28.144531c-22.609375 10.777344-46.785156 16.304688-72 16.304688zm272 128h-160c-13.230469 0-24-10.769531-24-24v-24h208v24c0 13.230469-10.769531 24-24 24zm0 0"/><path d="m352 448h48v16h-48zm0 0"/><path d="m376 304c-13.230469 0-24 10.769531-24 24s10.769531 24 24 24 24-10.769531 24-24-10.769531-24-24-24zm0 32c-4.414062 0-8-3.585938-8-8s3.585938-8 8-8 8 3.585938 8 8-3.585938 8-8 8zm0 0"/><path d="m376 256c39.703125 0 72 32.296875 72 72h16c0-48.519531-39.480469-88-88-88s-88 39.480469-88 88h16c0-39.703125 32.296875-72 72-72zm0 0"/><path d="m376 272c-30.871094 0-56 25.128906-56 56h16c0-22.054688 17.945312-40 40-40s40 17.945312 40 40h16c0-30.871094-25.128906-56-56-56zm0 0"/><path d="m48 416h16v16h-16zm0 0"/><path d="m48 448h16v16h-16zm0 0"/><path d="m64 432h16v16h-16zm0 0"/><path d="m32 432h16v16h-16zm0 0"/><path d="m208 384h16v16h-16zm0 0"/><path d="m208 416h16v16h-16zm0 0"/><path d="m224 400h16v16h-16zm0 0"/><path d="m192 400h16v16h-16zm0 0"/><path d="m432 32h16v16h-16zm0 0"/><path d="m432 64h16v16h-16zm0 0"/><path d="m448 48h16v16h-16zm0 0"/><path d="m416 48h16v16h-16zm0 0"/></svg>