<svg height="512pt" viewBox="0 0 512 512.00034" width="512pt" xmlns="http://www.w3.org/2000/svg"><path d="m154.851562 512h-.609374c-28.199219 0-52.421876-16.1875-63.214844-42.238281-10.792969-26.054688-5.109375-54.628907 14.832031-74.570313 2.925781-2.929687 7.675781-2.929687 10.605469 0 2.929687 2.929688 2.929687 7.675782 0 10.605469-15.570313 15.570313-20.007813 37.878906-11.578125 58.222656 8.425781 20.34375 27.339843 32.980469 49.355469 32.980469h.605468c14.273438 0 27.691406-5.558594 37.777344-15.648438l149.917969-149.914062c12.921875-12.925781 30.105469-20.042969 48.382812-20.042969h.605469c28.203125 0 52.425781 16.183594 63.21875 42.242188 10.792969 26.054687 5.109375 54.625-14.832031 74.566406l-48.601563 48.601563c-2.929687 2.925781-7.675781 2.925781-10.605468 0-2.929688-2.929688-2.929688-7.679688 0-10.609376l48.601562-48.597656c15.566406-15.570312 20.007812-37.878906 11.578125-58.222656-8.425781-20.34375-27.339844-32.980469-49.355469-32.980469h-.609375c-14.269531 0-27.683593 5.554688-37.773437 15.648438l-149.917969 149.917969c-12.921875 12.921874-30.105469 20.039062-48.382813 20.039062zm0 0" fill="#212121"/><path d="m182.484375 377.941406-48.769531-48.765625c-2.003906-2.003906-2.152344-5.203125-.347656-7.386719l169.96875-205.335937c2.28125-2.753906 6.4375-2.949219 8.964843-.421875l83.324219 83.324219c2.53125 2.527343 2.335938 6.6875-.421875 8.96875l-205.332031 169.964843c-2.183594 1.808594-5.382813 1.65625-7.386719-.347656zm0 0" fill="#757575"/><path d="m303.335938 116.453125-4.808594 5.804687 40.800781 40.800782c11.269531 11.269531 10.398437 29.796875-1.878906 39.957031l-180.488281 149.40625 25.523437 25.519531c2.003906 2.003906 5.203125 2.15625 7.386719.347656l205.332031-169.964843c2.757813-2.28125 2.953125-6.4375.421875-8.96875l-83.320312-83.320313c-2.53125-2.53125-6.6875-2.335937-8.96875.417969zm0 0" fill="#424242"/><path d="m239.0625 272.597656c-7.574219-7.578125-7.574219-19.859375 0-27.433594l33.855469-33.855468c7.574219-7.574219 19.859375-7.574219 27.433593 0 7.574219 7.574218 7.574219 19.855468 0 27.433594l-33.855468 33.855468c-7.574219 7.574219-19.859375 7.574219-27.433594 0zm0 0" fill="#424242"/><path d="m266.496094 272.597656 33.855468-33.855468c2.648438-2.648438 4.347657-5.875 5.144532-9.273438l-58.054688 48.054688c6.554688 1.871093 13.894532.230468 19.054688-4.925782zm0 0" fill="#212121"/><path d="m300.351562 211.308594c-7.574218-7.574219-19.859374-7.574219-27.433593 0l-10.070313 10.066406c-7.574218 7.578125-7.574218 19.859375 0 27.433594 7.578125 7.578125 19.859375 7.578125 27.433594 0l10.070312-10.066406c7.574219-7.578126 7.574219-19.859376 0-27.433594zm0 0" fill="#e0e0e0"/><path d="m218.597656 307.949219c0 8.222656-6.664062 14.886719-14.886718 14.886719-8.222657 0-14.890626-6.664063-14.890626-14.886719 0-8.222657 6.667969-14.890625 14.890626-14.890625 8.222656 0 14.886718 6.667968 14.886718 14.890625zm0 0" fill="#ef5350"/><path d="m303.335938 116.453125-23.585938 28.496094 86.960938 86.960937 28.492187-23.585937c2.757813-2.28125 2.953125-6.4375.421875-8.96875l-83.324219-83.320313c-2.527343-2.53125-6.683593-2.335937-8.964843.417969zm0 0" fill="#e0e0e0"/><path d="m123.265625 412.59375-24.203125-24.199219c-2.535156-2.535156-2.722656-6.582031-.4375-9.339843l38.492188-46.476563 41.964843 41.964844-46.476562 38.492187c-2.761719 2.285156-6.808594 2.09375-9.339844-.441406zm0 0" fill="#e0e0e0"/><path d="m137.117188 332.574219-18.121094 21.882812 8.65625 8.652344c6.128906 6.132813 5.65625 16.210937-1.019532 21.742187l-17.019531 14.09375 13.648438 13.648438c2.535156 2.535156 6.582031 2.726562 9.339843.4375l46.480469-38.488281zm0 0" fill="#bdbdbd"/><path d="m303.335938 116.453125-4.808594 5.804687 40.984375 40.988282c11.171875 11.167968 10.308593 29.53125-1.859375 39.605468l29.058594 29.058594 28.492187-23.585937c2.757813-2.28125 2.953125-6.441407.421875-8.96875l-83.324219-83.324219c-2.527343-2.527344-6.683593-2.332031-8.964843.421875zm0 0" fill="#bdbdbd"/><path d="m209.789062.253906-154.660156 41.441406c-3.277344.878907-5.558594 3.851563-5.558594 7.246094v118.816406c-27.953124-2.074218-51.566406 21.222657-49.4375 49.585938 1.695313 22.570312 19.914063 40.792969 42.484376 42.484375 27.050781 2.03125 49.710937-19.402344 49.710937-46.03125v-115.199219c0-2.261718 1.519531-4.242187 3.707031-4.828125l74.140625-19.867187c3.175781-.851563 6.292969 1.542968 6.292969 4.832031v47.582031c-27.949219-2.074218-51.566406 21.222656-49.4375 49.585938 1.695312 22.570312 19.917969 40.792968 42.488281 42.484375 27.046875 2.03125 49.707031-19.402344 49.707031-46.03125v-164.636719c0-5.453125-4.894531-8.679688-9.4375-7.464844zm0 0" fill="#ffca28"/><path d="m84.636719 96.746094c-10.199219 2.6875-17.308594 11.910156-17.308594 22.457031v69.59375c0 32.886719-33.613281 55.238281-63.816406 42.652344 6.527343 15.664062 21.492187 27.054687 39.105469 28.378906 27.050781 2.03125 49.710937-19.40625 49.710937-46.03125v-115.226563c0-2.273437 1.53125-4.257812 3.726563-4.835937l6.578124-1.734375zm0 0" fill="#ffa000"/><path d="m209.789062.253906-15.5625 4.171875v142.929688c0 32.878906-33.605468 55.242187-63.816406 42.652343 6.527344 15.667969 21.492188 27.058594 39.109375 28.378907 27.046875 2.03125 49.707031-19.402344 49.707031-46.03125v-164.636719c0-5.453125-4.894531-8.679688-9.4375-7.464844zm0 0" fill="#ffa000"/><path d="m464.5 183.183594-136.027344-136.023438c-2.777344-2.78125-7.457031-3.121094-10.871094.117188-.003906.003906-.003906.003906-.003906.007812-12.710937 19.121094-18.761718 41.445313-17.484375 64.464844.101563 1.84375.882813 3.582031 2.1875 4.886719l92.722657 92.722656c1.304687 1.304687 3.042968 2.082031 4.886718 2.183594 2.015625.113281 4.019532.167969 6.023438.167969 20.816406 0 40.878906-6.015626 58.292968-17.550782.003907-.003906.011719-.007812.015626-.015625 3.386718-3.359375 3.070312-8.144531.257812-10.960937zm0 0" fill="#757575"/><path d="m464.5 183.183594-136.027344-136.023438c-2.777344-2.78125-7.457031-3.121094-10.871094.117188-.003906.003906-.003906.003906-.003906.007812-4.011718 6.035156-7.355468 12.386719-10.019531 18.976563l116.921875 116.921875c2.8125 2.816406 3.128906 7.601562-.257812 10.960937-.003907.007813-.011719.011719-.015626.015625-9.496093 6.289063-19.785156 10.925782-30.550781 13.855469l1.34375 1.34375c1.304688 1.304687 3.046875 2.082031 4.890625 2.183594 2.011719.113281 4.019532.167969 6.019532.167969 20.816406 0 40.882812-6.019532 58.292968-17.550782.007813-.003906.011719-.011718.019532-.015625 3.386718-3.359375 3.070312-8.144531.257812-10.960937zm0 0" fill="#424242"/><path d="m511.027344 94.222656c-2.609375-23.804687-13.394532-46.261718-30.359375-63.230468-16.96875-16.96875-39.425781-27.75-63.234375-30.359376-23.835938-2.609374-48.136719 3-68.28125 15.796876-.003906 0-.007813.003906-.011719.003906-3.46875 3.355468-3.179687 8.203125-.339844 11.042968l135.382813 135.378907c1.414062 1.417969 3.324218 2.199219 5.300781 2.199219 1.867187 0 3.773437-.695313 5.457031-2.089844 12.996094-20.234375 18.714844-44.726563 16.085938-68.742188zm0 0" fill="#757575"/><path d="m511.027344 94.222656c-2.609375-23.804687-13.394532-46.261718-30.359375-63.230468-16.96875-16.96875-39.425781-27.75-63.234375-30.359376-10.554688-1.15625-21.203125-.6914058-31.542969 1.285157 20.632813 3.992187 39.835937 14.128906 54.777344 29.074219 16.96875 16.96875 27.75 39.421874 30.359375 63.230468 1.828125 16.703125-.390625 33.628906-6.277344 49.199219l19.429688 19.433594c1.417968 1.414062 3.328124 2.195312 5.304687 2.195312 1.867187 0 3.769531-.695312 5.453125-2.085937 13-20.234375 18.71875-44.726563 16.089844-68.742188zm0 0" fill="#424242"/><path d="m500.253906 157.714844-146.308594-146.308594c-1.410156-1.40625-3.316406-2.199219-5.304687-2.199219-1.992187 0-3.898437.792969-5.304687 2.199219l-30.609376 30.609375c-2.929687 2.929687-2.929687 7.679687 0 10.605469l146.308594 146.3125c1.40625 1.40625 3.3125 2.195312 5.304688 2.195312 1.988281 0 3.894531-.789062 5.304687-2.195312l30.609375-30.613282c1.40625-1.40625 2.195313-3.3125 2.195313-5.300781s-.789063-3.898437-2.195313-5.304687zm0 0" fill="#ef5350"/><path d="m500.253906 157.714844-146.308594-146.308594c-1.410156-1.40625-3.316406-2.199219-5.304687-2.199219-1.992187 0-3.898437.792969-5.304687 2.199219l-30.609376 30.609375c-2.929687 2.929687-2.929687 7.679687 0 10.605469l146.308594 146.3125c1.40625 1.40625 3.3125 2.195312 5.304688 2.195312 1.988281 0 3.894531-.789062 5.304687-2.195312l30.609375-30.613282c1.40625-1.40625 2.195313-3.3125 2.195313-5.300781s-.789063-3.898437-2.195313-5.304687zm0 0" fill="#ef5350"/><path d="m501.890625 160.15625c-.394531-.96875-1.023437-1.828125-1.761719-2.566406l-146.183594-146.183594c-2.082031-2.078125-5.25-2.8125-8.164062-1.640625-.96875.390625-1.824219 1.019531-2.566406 1.757813l-14.574219 14.578124 122.679687 122.683594c7.863282 7.859375 7.863282 20.605469 0 28.46875l-6.984374 6.984375 14.578124 14.574219c.738282.738281 1.59375 1.371094 2.566407 1.757812 2.914062 1.171876 6.082031.441407 8.160156-1.636718l30.609375-30.609375c2.082031-2.082031 2.816406-5.253907 1.640625-8.167969zm0 0" fill="#d32f2f"/></svg>