<?xml version="1.0"?>
<svg xmlns="http://www.w3.org/2000/svg" viewBox="0 0 64 64" width="auto" height="auto"><g id="flat"><polygon points="37 42 23 50 23 36 37 28 37 42" style="fill:#4f83d1"/><path d="M3,46s10,1,10-10h6V50H3Z" style="fill:#4f83d1"/><polygon points="21 22 21 16 31 19 21 22" style="fill:#dd3e46"/><rect x="19" y="34" width="4" height="18" style="fill:#3e5496"/><rect x="37" y="26" width="4" height="18" style="fill:#3e5496"/><rect x="57" y="26" width="4" height="18" style="fill:#3e5496"/><polygon points="46.5 22 41 22 41 42 57 42 57 22 46.5 22" style="fill:#4f83d1"/><rect x="37" y="44" width="4" height="8" style="fill:#ad6327"/><rect x="57" y="44" width="4" height="8" style="fill:#ad6327"/><rect x="37" y="22" width="4" height="4" style="fill:#ad6327"/><rect x="57" y="22" width="4" height="4" style="fill:#ad6327"/><rect x="16" y="45" width="3" height="2" style="fill:#f4f4e6"/><rect x="20" y="16" width="2" height="18" style="fill:#5a6470"/><path d="M47,32h4a2,2,0,0,1,2,2v8a0,0,0,0,1,0,0H45a0,0,0,0,1,0,0V34A2,2,0,0,1,47,32Z" style="fill:#f4f4e6"/><path d="M52,42v3H46V42H44V55h2V51h6v4h2V42Zm-6,7V47h6v2Z" style="fill:#f3bb59"/><circle cx="30" cy="39" r="2" style="fill:#fff"/><path d="M49,10A12,12,0,0,0,37,22H61A12,12,0,0,0,49,10Z" style="fill:#f3bb59"/><path d="M42.949,19.316l-1.9-.632A7.688,7.688,0,0,1,49,13v2C45.81,15,43.944,16.331,42.949,19.316Z" style="fill:#fff"/><rect x="55" y="17" width="2" height="2" style="fill:#fff"/><circle cx="49" cy="26" r="2" style="fill:#f3bb59"/></g></svg>
