<?xml version="1.0" encoding="utf-8"?>
<!-- Generator: Adobe Illustrator 21.0.0, SVG Export Plug-In . SVG Version: 6.00 Build 0)  -->
<svg version="1.1" id="Layer_1" xmlns="http://www.w3.org/2000/svg" xmlns:xlink="http://www.w3.org/1999/xlink" x="0px" y="0px"
	 viewBox="0 0 144 168" style="enable-background:new 0 0 144 168;" xml:space="preserve">
<style type="text/css">
	.st0{fill:url(#SVGID_1_);}
	.st1{fill:url(#SVGID_2_);}
	.st2{opacity:6.000000e-02;}
	.st3{fill:#27224D;}
	.st4{fill:url(#SVGID_3_);}
</style>
<g transform="translate(-104)">
	<g transform="translate(124.889)">
		
			<linearGradient id="SVGID_1_" gradientUnits="userSpaceOnUse" x1="-249.0183" y1="476.995" x2="-247.1794" y2="477.854" gradientTransform="matrix(39.8956 17.1672 43.6041 -101.3332 -10899.0342 52708.3438)">
			<stop  offset="0.158" style="stop-color:#31DBE8"/>
			<stop  offset="0.192" style="stop-color:#33D2E7"/>
			<stop  offset="0.42" style="stop-color:#4299E3"/>
			<stop  offset="0.616" style="stop-color:#4D70E0"/>
			<stop  offset="0.769" style="stop-color:#5456DF"/>
			<stop  offset="0.862" style="stop-color:#564DDE"/>
		</linearGradient>
		<path class="st0" d="M43.8,19c-0.1-0.1-4.2-1.3-4.3-1.4c-0.8-0.7-9.9-5.4-19.9,9.6C8.7,43.5,5.8,76.8-3.8,95.3
			c-4.9,9.4-9.8,12.8-13.6,13.8c-1,0.3-1.5,1.3-1.3,2.2c0.1,0.5,0.4,0.9,0.9,1.1c6.8,3.7,24.3,9.9,33.3,7.9
			c13.7-3.1,21.4-23.9,20.4-47.6c-1.1-24.2,4.6-41.1,12.8-39.4c8.2,1.7,7.1,3.1,7.1,3.1L42.7,20.7C42.6,20.5,44,19.1,43.8,19
			L43.8,19z"/>
		
			<linearGradient id="SVGID_2_" gradientUnits="userSpaceOnUse" x1="-247.361" y1="477.7905" x2="-248.081" y2="477.0515" gradientTransform="matrix(37.5106 16.141 43.3518 -100.747 -11323.4727 52191.0508)">
			<stop  offset="0" style="stop-color:#31DBE8"/>
			<stop  offset="1" style="stop-color:#3A3ABA"/>
		</linearGradient>
		<path class="st1" d="M65,146.8c0.1,0,0.1,0.1,0.2,0.1c0.6,0.6,6.1,4.6,16.3-10.6c10.8-16.3,13.8-49.6,23.4-68
			c5.6-10.8,11.4-13.7,15.2-14.2c0.6-0.1,1-0.6,1-1.2c0-0.3-0.2-0.6-0.5-0.8c-6.4-3.7-19.1-9.9-28.9-7.7S77,55.9,73.1,62.4
			c-0.3,0.6-0.7,1.1-1,1.7c-5.7,10.4-7.1,20.1-8.3,28.9c-2.9,21.5,0,37.8-5.5,40.4c-0.8,0.3-1.6,0.4-2.4,0.2
			c-8.2-1.7-10.9-6.4-10.9-6.4L58.3,143c0.1,0.1,0.2,0.2,0.3,0.3L65,146.8z"/>
		<g transform="translate(64.864 27.899)" class="st2">
			<path class="st3" d="M-18.1,101.3l-1.6-2C-19.3,100-18.8,100.7-18.1,101.3z"/>
			<path class="st3" d="M21.2,99.4C18.2,106,1.8,112.8,7.5,86.6c4.7-21.3,5-46.3,1.1-52.8c-0.1,0.2-0.3,0.5-0.4,0.7
				c-0.3,0.6-0.7,1.1-1,1.7C1.6,46.6,0.2,56.3-1,65.1c-2.9,21.5,0,37.8-5.5,40.4c-0.8,0.3-1.6,0.4-2.4,0.2c-3.4-0.6-6.6-2.1-9.2-4.5
				l11.6,13.8c0.1,0.1,0.2,0.2,0.3,0.3l6.4,3.6c0.1,0,0.1,0.1,0.2,0.1c0.6,0.6,6.1,4.6,16.3-10.6C18.4,105.6,20,102.6,21.2,99.4z"/>
			<path class="st3" d="M21.7,98.3c0.1-0.2,0.2-0.4,0.2-0.6C21.8,97.9,21.8,98.1,21.7,98.3z"/>
		</g>
		
			<linearGradient id="SVGID_3_" gradientUnits="userSpaceOnUse" x1="-250.5034" y1="477.3018" x2="-250.7164" y2="476.9398" gradientTransform="matrix(72.1581 31.0499 43.1772 -100.3412 -2489.6306 55761.4375)">
			<stop  offset="0" style="stop-color:#31DBE8"/>
			<stop  offset="1" style="stop-color:#564DDE"/>
		</linearGradient>
		<path class="st4" d="M37.1,16.6c0,0,39.4,8.7,34.6,57.4s-16.7,60.2-5.5,73.6l0,0C39.9,136.2,31.9,105,36.2,79S55.1,31.6,37.1,16.6
			z"/>
	</g>
</g>
</svg>
